<svg width="82" height="82" viewBox="0 0 82 82" fill="none" xmlns="http://www.w3.org/2000/svg">
<path fill-rule="evenodd" clip-rule="evenodd" d="M36.6465 3.21896C37.8875 1.97797 39.5706 1.28078 41.3256 1.28078C43.0807 1.28078 44.7638 1.97797 46.0048 3.21896C47.2458 4.45996 47.943 6.14311 47.943 7.89815V8.22475L47.943 8.2273C47.9482 9.51992 48.3312 10.7828 49.0449 11.8605C49.758 12.9373 50.7701 13.7823 51.9569 14.2916C53.1677 14.8252 54.5104 14.9842 55.8124 14.7482C57.1155 14.5119 58.318 13.8907 59.2647 12.9646L59.4876 12.7417C60.1022 12.1264 60.832 11.6383 61.6354 11.3053C62.4387 10.9723 63.2998 10.8009 64.1694 10.8009C65.0391 10.8009 65.9002 10.9723 66.7035 11.3053C67.5068 11.6383 68.2366 12.1264 68.8512 12.7417L68.8517 12.7422C69.467 13.3567 69.9551 14.0866 70.2881 14.8899C70.6211 15.6932 70.7925 16.5543 70.7925 17.424C70.7925 18.2936 70.6211 19.1547 70.2881 19.958C69.9551 20.7613 69.4667 21.4914 68.8515 22.106L68.6337 22.3237L68.6288 22.3288C67.7027 23.2755 67.0815 24.4779 66.8452 25.781C66.6172 27.0387 66.7578 28.3345 67.2486 29.5126V29.6714C67.2486 29.7582 67.2663 29.844 67.3004 29.9237C67.8096 31.1118 68.6551 32.1251 69.7329 32.8388C70.8106 33.5525 72.0735 33.9355 73.3661 33.9407L73.3687 33.9407H73.9856C75.7406 33.9407 77.4237 34.6379 78.6647 35.8789C79.9057 37.1199 80.6029 38.803 80.6029 40.5581C80.6029 42.3131 79.9057 43.9963 78.6647 45.2372C77.4237 46.4782 75.7406 47.1754 73.9856 47.1754L73.659 47.1754L73.6564 47.1754C72.3638 47.1806 71.1009 47.5636 70.0232 48.2773C68.9465 48.9904 68.1016 50.0024 67.5922 51.189C67.0585 52.3998 66.8994 53.7427 67.1355 55.0448C67.3718 56.3479 67.993 57.5504 68.9191 58.4971L69.142 58.7201C69.7573 59.3346 70.2454 60.0645 70.5784 60.8678C70.9114 61.6711 71.0828 62.5322 71.0828 63.4019C71.0828 64.2715 70.9114 65.1326 70.5784 65.9359C70.2454 66.7393 69.7573 67.4691 69.142 68.0836L69.1415 68.0842C68.527 68.6994 67.7971 69.1875 66.9938 69.5205C66.1905 69.8535 65.3294 70.0249 64.4597 70.0249C63.5901 70.0249 62.729 69.8535 61.9257 69.5205C61.1224 69.1875 60.3923 68.6992 59.7777 68.0839L59.56 67.8661L59.555 67.8612C58.6082 66.9351 57.4058 66.3139 56.1027 66.0776C54.8006 65.8415 53.4577 66.0006 52.2469 66.5343C51.0603 67.0437 50.0482 67.8886 49.3352 68.9653C48.6215 70.043 48.2385 71.3059 48.2333 72.5985L48.2333 72.6011V73.218C48.2333 74.973 47.5361 76.6562 46.2951 77.8972C45.0541 79.1382 43.371 79.8353 41.616 79.8353C39.8609 79.8353 38.1778 79.1382 36.9368 77.8972C35.6958 76.6562 34.9986 74.973 34.9986 73.218V72.8914L34.9984 72.8764C34.9673 71.5468 34.5369 70.2573 33.7632 69.1756C32.9935 68.0993 31.9192 67.2782 30.679 66.8178C29.4723 66.2896 28.1353 66.1329 26.8389 66.368C25.5358 66.6042 24.3333 67.2254 23.3866 68.1515L23.1636 68.3745C22.5491 68.9897 21.8192 69.4778 21.0159 69.8108C20.2126 70.1438 19.3515 70.3153 18.4818 70.3153C17.6122 70.3153 16.7511 70.1438 15.9478 69.8108C15.1445 69.4778 14.4146 68.9897 13.8001 68.3745L13.7996 68.374C13.1843 67.7594 12.6962 67.0296 12.3632 66.2262C12.0302 65.4229 11.8588 64.5618 11.8588 63.6922C11.8588 62.8225 12.0302 61.9614 12.3632 61.1581C12.6962 60.3548 13.1845 59.6247 13.7998 59.0101L14.0176 58.7924L14.0225 58.7874C14.9486 57.8407 15.5698 56.6382 15.8061 55.3351C16.0421 54.0332 15.8831 52.6904 15.3495 51.4796C14.8402 50.2929 13.9952 49.2807 12.9184 48.5676C11.8407 47.8539 10.5778 47.4709 9.28519 47.4657H8.66573C6.91069 47.4657 5.22754 46.7686 3.98654 45.5276C2.74554 44.2866 2.04836 42.6034 2.04836 40.8484C2.04836 39.0933 2.74554 37.4102 3.98654 36.1692C5.22754 34.9282 6.91069 34.231 8.66573 34.231H8.99233L9.0073 34.2308C10.3369 34.1997 11.6264 33.7694 12.7082 32.9956C13.7844 32.2259 14.6055 31.1517 15.0659 29.9115C15.5941 28.7047 15.7508 27.3678 15.5158 26.0713C15.2795 24.7682 14.6583 23.5658 13.7322 22.619L13.5092 22.3961C12.894 21.7815 12.4059 21.0517 12.0729 20.2483C11.7399 19.445 11.5685 18.5839 11.5685 17.7143C11.5685 16.8446 11.7399 15.9835 12.0729 15.1802C12.4059 14.3769 12.894 13.6471 13.5092 13.0325L13.5097 13.032C14.1243 12.4167 14.8541 11.9286 15.6575 11.5956C16.4608 11.2626 17.3219 11.0912 18.1915 11.0912C19.0612 11.0912 19.9223 11.2626 20.7256 11.5956C21.5289 11.9286 22.259 12.417 22.8736 13.0322L23.0913 13.25L23.0963 13.2549C24.0431 14.181 25.2455 14.8022 26.5486 15.0385C27.8063 15.2665 29.1021 15.1259 30.2802 14.6351H30.439C30.5257 14.6351 30.6116 14.6174 30.6913 14.5833C31.8794 14.0741 32.8927 13.2286 33.6064 12.1508C34.3201 11.0731 34.7031 9.81023 34.7083 8.51761L34.7083 8.51506V7.89815C34.7083 6.14311 35.4055 4.45996 36.6465 3.21896ZM41.3256 0C39.2309 0 37.222 0.832124 35.7408 2.31331C34.2596 3.7945 33.4275 5.80343 33.4275 7.89815V8.5137C33.4231 9.55612 33.1141 10.5745 32.5385 11.4437C31.9863 12.2776 31.2117 12.9391 30.3037 13.3543H30.1487C30.0597 13.3543 29.9716 13.3728 29.8901 13.4088C28.9127 13.8402 27.8284 13.9689 26.7771 13.7783C25.7269 13.5878 24.7578 13.0876 23.9944 12.3418L23.7792 12.1266C23.0458 11.3924 22.1748 10.8099 21.2161 10.4125C20.2572 10.015 19.2295 9.81041 18.1915 9.81041C17.1536 9.81041 16.1258 10.015 15.167 10.4125C14.2084 10.8098 13.3375 11.3922 12.6041 12.1263C11.8698 12.8599 11.2872 13.7309 10.8897 14.6897C10.4923 15.6486 10.2877 16.6763 10.2877 17.7143C10.2877 18.7522 10.4923 19.78 10.8897 20.7388C11.2872 21.6976 11.8698 22.5687 12.6041 23.3022L12.819 23.5171C13.5648 24.2805 14.0651 25.2497 14.2555 26.2998C14.4461 27.3511 14.3175 28.4354 13.8861 29.4129C13.8829 29.42 13.8799 29.4273 13.877 29.4346C13.8749 29.4398 13.8729 29.4451 13.8709 29.4504C13.5005 30.4574 12.8358 31.3297 11.9631 31.9539C11.0923 32.5767 10.0548 32.9237 8.98466 32.9502H8.66573C6.57101 32.9502 4.56208 33.7824 3.08089 35.2635C1.5997 36.7447 0.767578 38.7537 0.767578 40.8484C0.767578 42.9431 1.5997 44.952 3.08089 46.4332C4.56208 47.9144 6.57101 48.7465 8.66573 48.7465L9.28008 48.7465L9.28128 48.7465C10.3237 48.7509 11.3421 49.0599 12.2112 49.6355C13.0807 50.2113 13.7628 51.0288 14.1736 51.9873L14.1764 51.9936C14.6078 52.971 14.7365 54.0553 14.5458 55.1066C14.3554 56.1568 13.8551 57.1259 13.1093 57.8893L13.1069 57.8918L12.8942 58.1045C12.1599 58.838 11.5775 59.7089 11.18 60.6676C10.7826 61.6265 10.578 62.6542 10.578 63.6922C10.578 64.7301 10.7826 65.7579 11.18 66.7167C11.5774 67.6753 12.1598 68.5462 12.8939 69.2796C13.6274 70.014 14.4985 70.5965 15.4573 70.994C16.4161 71.3914 17.4439 71.596 18.4818 71.596C19.5198 71.596 20.5475 71.3914 21.5064 70.994C22.4652 70.5965 23.3363 70.014 24.0698 69.2796L24.2822 69.0671L24.2847 69.0646C25.0481 68.3189 26.0173 67.8186 27.0674 67.6282C28.1187 67.4376 29.203 67.5662 30.1804 67.9976L30.1977 68.0049C30.2044 68.0077 30.2111 68.0103 30.218 68.0128C31.225 68.3832 32.0973 69.0479 32.7215 69.9206C33.3443 70.7914 33.6913 71.829 33.7178 72.899V73.218C33.7178 75.3127 34.5499 77.3216 36.0311 78.8028C37.5123 80.284 39.5212 81.1161 41.616 81.1161C43.7107 81.1161 45.7196 80.284 47.2008 78.8028C48.682 77.3216 49.5141 75.3127 49.5141 73.218L49.5141 72.6036L49.5141 72.6024C49.5185 71.56 49.8275 70.5416 50.4031 69.6725C50.9789 68.803 51.7964 68.1209 52.7549 67.7101L52.7612 67.7073C53.7386 67.2759 54.8229 67.1472 55.8742 67.3379C56.9243 67.5283 57.8934 68.0285 58.6567 68.7742L58.6594 68.7768L58.8721 68.9895C59.6055 69.7238 60.4765 70.3062 61.4352 70.7037C62.394 71.1011 63.4218 71.3057 64.4597 71.3057C65.4977 71.3057 66.5255 71.1011 67.4843 70.7037C68.443 70.3062 69.314 69.7238 70.0474 68.9895C70.7817 68.2561 71.3641 67.3851 71.7616 66.4264C72.159 65.4676 72.3636 64.4398 72.3636 63.4019C72.3636 62.3639 72.159 61.3362 71.7616 60.3773C71.3641 59.4186 70.7814 58.5474 70.0472 57.8139L69.8347 57.6015L69.8321 57.5988C69.0864 56.8355 68.5862 55.8664 68.3958 54.8163C68.2051 53.765 68.3339 52.6807 68.7653 51.7033L68.768 51.697C69.1788 50.7385 69.8609 49.921 70.7304 49.3452C71.5995 48.7696 72.6179 48.4606 73.6603 48.4562L73.6615 48.4562L73.9856 48.4562C76.0803 48.4562 78.0892 47.6241 79.5704 46.1429C81.0516 44.6617 81.8837 42.6528 81.8837 40.5581C81.8837 38.4633 81.0516 36.4544 79.5704 34.9732C78.0892 33.492 76.0803 32.6599 73.9856 32.6599H73.37C72.3276 32.6555 71.3092 32.3465 70.44 31.771C69.6062 31.2187 68.9446 30.4442 68.5294 29.5361V29.3811C68.5294 29.2921 68.5109 29.204 68.4749 29.1225C68.0435 28.1451 67.9148 27.0608 68.1054 26.0095C68.2959 24.9594 68.7962 23.9903 69.5419 23.2269L69.5444 23.2244L69.7569 23.0119C70.4912 22.2784 71.0738 21.4073 71.4712 20.4485C71.8687 19.4897 72.0733 18.4619 72.0733 17.424C72.0733 16.386 71.8687 15.3583 71.4712 14.3994C71.0738 13.4406 70.4912 12.5695 69.7569 11.836C69.0234 11.1019 68.1526 10.5195 67.194 10.1222C66.2351 9.72468 65.2074 9.5201 64.1694 9.5201C63.1315 9.5201 62.1037 9.72468 61.1449 10.1222C60.1862 10.5196 59.315 11.1023 58.5815 11.8365L58.369 12.049L58.3666 12.0514C57.6032 12.7972 56.6341 13.2975 55.5839 13.4879C54.5326 13.6786 53.4483 13.5498 52.4709 13.1185L52.4646 13.1157C51.506 12.7049 50.6886 12.0228 50.1128 11.1534C49.5372 10.2842 49.2282 9.26581 49.2238 8.22339L49.2238 8.22219L49.2238 7.89815C49.2238 5.80343 48.3917 3.7945 46.9105 2.31331C45.4293 0.832124 43.4204 0 41.3256 0ZM30.7872 40.2387C30.7872 34.5947 35.3625 30.0193 41.0065 30.0193C46.6505 30.0193 51.2259 34.5947 51.2259 40.2387C51.2259 45.8827 46.6505 50.458 41.0065 50.458C35.3625 50.458 30.7872 45.8827 30.7872 40.2387ZM41.0065 28.7419C34.657 28.7419 29.5098 33.8892 29.5098 40.2387C29.5098 46.5882 34.657 51.7355 41.0065 51.7355C47.356 51.7355 52.5033 46.5882 52.5033 40.2387C52.5033 33.8892 47.356 28.7419 41.0065 28.7419Z" fill="black"/>
</svg>
